<?xml version="1.0" encoding="utf-8"?>
<svg xmlns="http://www.w3.org/2000/svg" xmlns:xlink="http://www.w3.org/1999/xlink" width="600" height="400" viewBox="0 0 2400 1600">
<defs>
  <clipPath id="clip080">
    <rect x="0" y="0" width="2400" height="1600"/>
  </clipPath>
</defs>
<path clip-path="url(#clip080)" d="
M0 1600 L2400 1600 L2400 0 L0 0  Z
  " fill="#ffffff" fill-rule="evenodd" fill-opacity="1"/>
<defs>
  <clipPath id="clip081">
    <rect x="480" y="0" width="1681" height="1600"/>
  </clipPath>
</defs>
<path clip-path="url(#clip080)" d="
M138.959 1486.45 L2352.76 1486.45 L2352.76 47.2441 L138.959 47.2441  Z
  " fill="#ffffff" fill-rule="evenodd" fill-opacity="1"/>
<defs>
  <clipPath id="clip082">
    <rect x="138" y="47" width="2215" height="1440"/>
  </clipPath>
</defs>
<polyline clip-path="url(#clip082)" style="stroke:#000000; stroke-linecap:round; stroke-linejoin:round; stroke-width:2; stroke-opacity:0.1; fill:none" points="
  197.429,1486.45 197.429,47.2441 
  "/>
<polyline clip-path="url(#clip082)" style="stroke:#000000; stroke-linecap:round; stroke-linejoin:round; stroke-width:2; stroke-opacity:0.1; fill:none" points="
  615.963,1486.45 615.963,47.2441 
  "/>
<polyline clip-path="url(#clip082)" style="stroke:#000000; stroke-linecap:round; stroke-linejoin:round; stroke-width:2; stroke-opacity:0.1; fill:none" points="
  1034.5,1486.45 1034.5,47.2441 
  "/>
<polyline clip-path="url(#clip082)" style="stroke:#000000; stroke-linecap:round; stroke-linejoin:round; stroke-width:2; stroke-opacity:0.1; fill:none" points="
  1453.03,1486.45 1453.03,47.2441 
  "/>
<polyline clip-path="url(#clip082)" style="stroke:#000000; stroke-linecap:round; stroke-linejoin:round; stroke-width:2; stroke-opacity:0.1; fill:none" points="
  1871.57,1486.45 1871.57,47.2441 
  "/>
<polyline clip-path="url(#clip082)" style="stroke:#000000; stroke-linecap:round; stroke-linejoin:round; stroke-width:2; stroke-opacity:0.1; fill:none" points="
  2290.1,1486.45 2290.1,47.2441 
  "/>
<polyline clip-path="url(#clip080)" style="stroke:#000000; stroke-linecap:round; stroke-linejoin:round; stroke-width:4; stroke-opacity:1; fill:none" points="
  138.959,1486.45 2352.76,1486.45 
  "/>
<polyline clip-path="url(#clip080)" style="stroke:#000000; stroke-linecap:round; stroke-linejoin:round; stroke-width:4; stroke-opacity:1; fill:none" points="
  197.429,1486.45 197.429,1467.55 
  "/>
<polyline clip-path="url(#clip080)" style="stroke:#000000; stroke-linecap:round; stroke-linejoin:round; stroke-width:4; stroke-opacity:1; fill:none" points="
  615.963,1486.45 615.963,1467.55 
  "/>
<polyline clip-path="url(#clip080)" style="stroke:#000000; stroke-linecap:round; stroke-linejoin:round; stroke-width:4; stroke-opacity:1; fill:none" points="
  1034.5,1486.45 1034.5,1467.55 
  "/>
<polyline clip-path="url(#clip080)" style="stroke:#000000; stroke-linecap:round; stroke-linejoin:round; stroke-width:4; stroke-opacity:1; fill:none" points="
  1453.03,1486.45 1453.03,1467.55 
  "/>
<polyline clip-path="url(#clip080)" style="stroke:#000000; stroke-linecap:round; stroke-linejoin:round; stroke-width:4; stroke-opacity:1; fill:none" points="
  1871.57,1486.45 1871.57,1467.55 
  "/>
<polyline clip-path="url(#clip080)" style="stroke:#000000; stroke-linecap:round; stroke-linejoin:round; stroke-width:4; stroke-opacity:1; fill:none" points="
  2290.1,1486.45 2290.1,1467.55 
  "/>
<path clip-path="url(#clip080)" d="M197.429 1517.37 Q193.818 1517.37 191.989 1520.93 Q190.183 1524.47 190.183 1531.6 Q190.183 1538.71 191.989 1542.27 Q193.818 1545.82 197.429 1545.82 Q201.063 1545.82 202.868 1542.27 Q204.697 1538.71 204.697 1531.6 Q204.697 1524.47 202.868 1520.93 Q201.063 1517.37 197.429 1517.37 M197.429 1513.66 Q203.239 1513.66 206.294 1518.27 Q209.373 1522.85 209.373 1531.6 Q209.373 1540.33 206.294 1544.94 Q203.239 1549.52 197.429 1549.52 Q191.619 1549.52 188.54 1544.94 Q185.484 1540.33 185.484 1531.6 Q185.484 1522.85 188.54 1518.27 Q191.619 1513.66 197.429 1513.66 Z" fill="#000000" fill-rule="evenodd" fill-opacity="1" /><path clip-path="url(#clip080)" d="M575.57 1544.91 L583.209 1544.91 L583.209 1518.55 L574.899 1520.21 L574.899 1515.95 L583.162 1514.29 L587.838 1514.29 L587.838 1544.91 L595.477 1544.91 L595.477 1548.85 L575.57 1548.85 L575.57 1544.91 Z" fill="#000000" fill-rule="evenodd" fill-opacity="1" /><path clip-path="url(#clip080)" d="M614.922 1517.37 Q611.31 1517.37 609.482 1520.93 Q607.676 1524.47 607.676 1531.6 Q607.676 1538.71 609.482 1542.27 Q611.31 1545.82 614.922 1545.82 Q618.556 1545.82 620.361 1542.27 Q622.19 1538.71 622.19 1531.6 Q622.19 1524.47 620.361 1520.93 Q618.556 1517.37 614.922 1517.37 M614.922 1513.66 Q620.732 1513.66 623.787 1518.27 Q626.866 1522.85 626.866 1531.6 Q626.866 1540.33 623.787 1544.94 Q620.732 1549.52 614.922 1549.52 Q609.111 1549.52 606.033 1544.94 Q602.977 1540.33 602.977 1531.6 Q602.977 1522.85 606.033 1518.27 Q609.111 1513.66 614.922 1513.66 Z" fill="#000000" fill-rule="evenodd" fill-opacity="1" /><path clip-path="url(#clip080)" d="M645.083 1517.37 Q641.472 1517.37 639.644 1520.93 Q637.838 1524.47 637.838 1531.6 Q637.838 1538.71 639.644 1542.27 Q641.472 1545.82 645.083 1545.82 Q648.718 1545.82 650.523 1542.27 Q652.352 1538.71 652.352 1531.6 Q652.352 1524.47 650.523 1520.93 Q648.718 1517.37 645.083 1517.37 M645.083 1513.66 Q650.894 1513.66 653.949 1518.27 Q657.028 1522.85 657.028 1531.6 Q657.028 1540.33 653.949 1544.94 Q650.894 1549.52 645.083 1549.52 Q639.273 1549.52 636.195 1544.94 Q633.139 1540.33 633.139 1531.6 Q633.139 1522.85 636.195 1518.27 Q639.273 1513.66 645.083 1513.66 Z" fill="#000000" fill-rule="evenodd" fill-opacity="1" /><path clip-path="url(#clip080)" d="M998.19 1544.91 L1014.51 1544.91 L1014.51 1548.85 L992.565 1548.85 L992.565 1544.91 Q995.227 1542.16 999.81 1537.53 Q1004.42 1532.88 1005.6 1531.53 Q1007.84 1529.01 1008.72 1527.27 Q1009.63 1525.51 1009.63 1523.82 Q1009.63 1521.07 1007.68 1519.33 Q1005.76 1517.6 1002.66 1517.6 Q1000.46 1517.6 998.005 1518.36 Q995.574 1519.13 992.797 1520.68 L992.797 1515.95 Q995.621 1514.82 998.074 1514.24 Q1000.53 1513.66 1002.57 1513.66 Q1007.94 1513.66 1011.13 1516.35 Q1014.32 1519.03 1014.32 1523.52 Q1014.32 1525.65 1013.51 1527.57 Q1012.73 1529.47 1010.62 1532.07 Q1010.04 1532.74 1006.94 1535.95 Q1003.84 1539.15 998.19 1544.91 Z" fill="#000000" fill-rule="evenodd" fill-opacity="1" /><path clip-path="url(#clip080)" d="M1034.32 1517.37 Q1030.71 1517.37 1028.88 1520.93 Q1027.08 1524.47 1027.08 1531.6 Q1027.08 1538.71 1028.88 1542.27 Q1030.71 1545.82 1034.32 1545.82 Q1037.96 1545.82 1039.76 1542.27 Q1041.59 1538.71 1041.59 1531.6 Q1041.59 1524.47 1039.76 1520.93 Q1037.96 1517.37 1034.32 1517.37 M1034.32 1513.66 Q1040.13 1513.66 1043.19 1518.27 Q1046.27 1522.85 1046.27 1531.6 Q1046.27 1540.33 1043.19 1544.94 Q1040.13 1549.52 1034.32 1549.52 Q1028.51 1549.52 1025.44 1544.94 Q1022.38 1540.33 1022.38 1531.6 Q1022.38 1522.85 1025.44 1518.27 Q1028.51 1513.66 1034.32 1513.66 Z" fill="#000000" fill-rule="evenodd" fill-opacity="1" /><path clip-path="url(#clip080)" d="M1064.49 1517.37 Q1060.87 1517.37 1059.05 1520.93 Q1057.24 1524.47 1057.24 1531.6 Q1057.24 1538.71 1059.05 1542.27 Q1060.87 1545.82 1064.49 1545.82 Q1068.12 1545.82 1069.93 1542.27 Q1071.75 1538.71 1071.75 1531.6 Q1071.75 1524.47 1069.93 1520.93 Q1068.12 1517.37 1064.49 1517.37 M1064.49 1513.66 Q1070.3 1513.66 1073.35 1518.27 Q1076.43 1522.85 1076.43 1531.6 Q1076.43 1540.33 1073.35 1544.94 Q1070.3 1549.52 1064.49 1549.52 Q1058.68 1549.52 1055.6 1544.94 Q1052.54 1540.33 1052.54 1531.6 Q1052.54 1522.85 1055.6 1518.27 Q1058.68 1513.66 1064.49 1513.66 Z" fill="#000000" fill-rule="evenodd" fill-opacity="1" /><path clip-path="url(#clip080)" d="M1426.79 1530.21 Q1430.15 1530.93 1432.03 1533.2 Q1433.92 1535.47 1433.92 1538.8 Q1433.92 1543.92 1430.41 1546.72 Q1426.89 1549.52 1420.41 1549.52 Q1418.23 1549.52 1415.91 1549.08 Q1413.62 1548.66 1411.17 1547.81 L1411.17 1543.29 Q1413.11 1544.43 1415.43 1545.01 Q1417.74 1545.58 1420.27 1545.58 Q1424.66 1545.58 1426.96 1543.85 Q1429.27 1542.11 1429.27 1538.8 Q1429.27 1535.75 1427.12 1534.03 Q1424.99 1532.3 1421.17 1532.3 L1417.14 1532.3 L1417.14 1528.45 L1421.35 1528.45 Q1424.8 1528.45 1426.63 1527.09 Q1428.46 1525.7 1428.46 1523.11 Q1428.46 1520.45 1426.56 1519.03 Q1424.69 1517.6 1421.17 1517.6 Q1419.25 1517.6 1417.05 1518.01 Q1414.85 1518.43 1412.21 1519.31 L1412.21 1515.14 Q1414.87 1514.4 1417.19 1514.03 Q1419.53 1513.66 1421.59 1513.66 Q1426.91 1513.66 1430.01 1516.09 Q1433.11 1518.5 1433.11 1522.62 Q1433.11 1525.49 1431.47 1527.48 Q1429.83 1529.45 1426.79 1530.21 Z" fill="#000000" fill-rule="evenodd" fill-opacity="1" /><path clip-path="url(#clip080)" d="M1452.79 1517.37 Q1449.18 1517.37 1447.35 1520.93 Q1445.54 1524.47 1445.54 1531.6 Q1445.54 1538.71 1447.35 1542.27 Q1449.18 1545.82 1452.79 1545.82 Q1456.42 1545.82 1458.23 1542.27 Q1460.06 1538.71 1460.06 1531.6 Q1460.06 1524.47 1458.23 1520.93 Q1456.42 1517.37 1452.79 1517.37 M1452.79 1513.66 Q1458.6 1513.66 1461.65 1518.27 Q1464.73 1522.85 1464.73 1531.6 Q1464.73 1540.33 1461.65 1544.94 Q1458.6 1549.52 1452.79 1549.52 Q1446.98 1549.52 1443.9 1544.94 Q1440.84 1540.33 1440.84 1531.6 Q1440.84 1522.85 1443.9 1518.27 Q1446.98 1513.66 1452.79 1513.66 Z" fill="#000000" fill-rule="evenodd" fill-opacity="1" /><path clip-path="url(#clip080)" d="M1482.95 1517.37 Q1479.34 1517.37 1477.51 1520.93 Q1475.71 1524.47 1475.71 1531.6 Q1475.71 1538.71 1477.51 1542.27 Q1479.34 1545.82 1482.95 1545.82 Q1486.59 1545.82 1488.39 1542.27 Q1490.22 1538.71 1490.22 1531.6 Q1490.22 1524.47 1488.39 1520.93 Q1486.59 1517.37 1482.95 1517.37 M1482.95 1513.66 Q1488.76 1513.66 1491.82 1518.27 Q1494.9 1522.85 1494.9 1531.6 Q1494.9 1540.33 1491.82 1544.94 Q1488.76 1549.52 1482.95 1549.52 Q1477.14 1549.52 1474.06 1544.94 Q1471.01 1540.33 1471.01 1531.6 Q1471.01 1522.85 1474.06 1518.27 Q1477.14 1513.66 1482.95 1513.66 Z" fill="#000000" fill-rule="evenodd" fill-opacity="1" /><path clip-path="url(#clip080)" d="M1844.66 1518.36 L1832.85 1536.81 L1844.66 1536.81 L1844.66 1518.36 M1843.43 1514.29 L1849.31 1514.29 L1849.31 1536.81 L1854.24 1536.81 L1854.24 1540.7 L1849.31 1540.7 L1849.31 1548.85 L1844.66 1548.85 L1844.66 1540.7 L1829.06 1540.7 L1829.06 1536.19 L1843.43 1514.29 Z" fill="#000000" fill-rule="evenodd" fill-opacity="1" /><path clip-path="url(#clip080)" d="M1871.97 1517.37 Q1868.36 1517.37 1866.53 1520.93 Q1864.73 1524.47 1864.73 1531.6 Q1864.73 1538.71 1866.53 1542.27 Q1868.36 1545.82 1871.97 1545.82 Q1875.61 1545.82 1877.41 1542.27 Q1879.24 1538.71 1879.24 1531.6 Q1879.24 1524.47 1877.41 1520.93 Q1875.61 1517.37 1871.97 1517.37 M1871.97 1513.66 Q1877.78 1513.66 1880.84 1518.27 Q1883.92 1522.85 1883.92 1531.6 Q1883.92 1540.33 1880.84 1544.94 Q1877.78 1549.52 1871.97 1549.52 Q1866.16 1549.52 1863.08 1544.94 Q1860.03 1540.33 1860.03 1531.6 Q1860.03 1522.85 1863.08 1518.27 Q1866.16 1513.66 1871.97 1513.66 Z" fill="#000000" fill-rule="evenodd" fill-opacity="1" /><path clip-path="url(#clip080)" d="M1902.13 1517.37 Q1898.52 1517.37 1896.69 1520.93 Q1894.89 1524.47 1894.89 1531.6 Q1894.89 1538.71 1896.69 1542.27 Q1898.52 1545.82 1902.13 1545.82 Q1905.77 1545.82 1907.57 1542.27 Q1909.4 1538.71 1909.4 1531.6 Q1909.4 1524.47 1907.57 1520.93 Q1905.77 1517.37 1902.13 1517.37 M1902.13 1513.66 Q1907.94 1513.66 1911 1518.27 Q1914.08 1522.85 1914.08 1531.6 Q1914.08 1540.33 1911 1544.94 Q1907.94 1549.52 1902.13 1549.52 Q1896.32 1549.52 1893.24 1544.94 Q1890.19 1540.33 1890.19 1531.6 Q1890.19 1522.85 1893.24 1518.27 Q1896.32 1513.66 1902.13 1513.66 Z" fill="#000000" fill-rule="evenodd" fill-opacity="1" /><path clip-path="url(#clip080)" d="M2249.72 1514.29 L2268.08 1514.29 L2268.08 1518.22 L2254 1518.22 L2254 1526.7 Q2255.02 1526.35 2256.04 1526.19 Q2257.06 1526 2258.08 1526 Q2263.86 1526 2267.24 1529.17 Q2270.62 1532.34 2270.62 1537.76 Q2270.62 1543.34 2267.15 1546.44 Q2263.68 1549.52 2257.36 1549.52 Q2255.18 1549.52 2252.91 1549.15 Q2250.67 1548.78 2248.26 1548.04 L2248.26 1543.34 Q2250.34 1544.47 2252.57 1545.03 Q2254.79 1545.58 2257.27 1545.58 Q2261.27 1545.58 2263.61 1543.48 Q2265.95 1541.37 2265.95 1537.76 Q2265.95 1534.15 2263.61 1532.04 Q2261.27 1529.94 2257.27 1529.94 Q2255.39 1529.94 2253.52 1530.35 Q2251.66 1530.77 2249.72 1531.65 L2249.72 1514.29 Z" fill="#000000" fill-rule="evenodd" fill-opacity="1" /><path clip-path="url(#clip080)" d="M2289.84 1517.37 Q2286.22 1517.37 2284.4 1520.93 Q2282.59 1524.47 2282.59 1531.6 Q2282.59 1538.71 2284.4 1542.27 Q2286.22 1545.82 2289.84 1545.82 Q2293.47 1545.82 2295.27 1542.27 Q2297.1 1538.71 2297.1 1531.6 Q2297.1 1524.47 2295.27 1520.93 Q2293.47 1517.37 2289.84 1517.37 M2289.84 1513.66 Q2295.65 1513.66 2298.7 1518.27 Q2301.78 1522.85 2301.78 1531.6 Q2301.78 1540.33 2298.7 1544.94 Q2295.65 1549.52 2289.84 1549.52 Q2284.02 1549.52 2280.95 1544.94 Q2277.89 1540.33 2277.89 1531.6 Q2277.89 1522.85 2280.95 1518.27 Q2284.02 1513.66 2289.84 1513.66 Z" fill="#000000" fill-rule="evenodd" fill-opacity="1" /><path clip-path="url(#clip080)" d="M2320 1517.37 Q2316.39 1517.37 2314.56 1520.93 Q2312.75 1524.47 2312.75 1531.6 Q2312.75 1538.71 2314.56 1542.27 Q2316.39 1545.82 2320 1545.82 Q2323.63 1545.82 2325.44 1542.27 Q2327.27 1538.71 2327.27 1531.6 Q2327.27 1524.47 2325.44 1520.93 Q2323.63 1517.37 2320 1517.37 M2320 1513.66 Q2325.81 1513.66 2328.86 1518.27 Q2331.94 1522.85 2331.94 1531.6 Q2331.94 1540.33 2328.86 1544.94 Q2325.81 1549.52 2320 1549.52 Q2314.19 1549.52 2311.11 1544.94 Q2308.05 1540.33 2308.05 1531.6 Q2308.05 1522.85 2311.11 1518.27 Q2314.19 1513.66 2320 1513.66 Z" fill="#000000" fill-rule="evenodd" fill-opacity="1" /><polyline clip-path="url(#clip082)" style="stroke:#000000; stroke-linecap:round; stroke-linejoin:round; stroke-width:2; stroke-opacity:0.1; fill:none" points="
  138.959,1345.48 2352.76,1345.48 
  "/>
<polyline clip-path="url(#clip082)" style="stroke:#000000; stroke-linecap:round; stroke-linejoin:round; stroke-width:2; stroke-opacity:0.1; fill:none" points="
  138.959,954.827 2352.76,954.827 
  "/>
<polyline clip-path="url(#clip082)" style="stroke:#000000; stroke-linecap:round; stroke-linejoin:round; stroke-width:2; stroke-opacity:0.1; fill:none" points="
  138.959,564.178 2352.76,564.178 
  "/>
<polyline clip-path="url(#clip082)" style="stroke:#000000; stroke-linecap:round; stroke-linejoin:round; stroke-width:2; stroke-opacity:0.1; fill:none" points="
  138.959,173.53 2352.76,173.53 
  "/>
<polyline clip-path="url(#clip080)" style="stroke:#000000; stroke-linecap:round; stroke-linejoin:round; stroke-width:4; stroke-opacity:1; fill:none" points="
  138.959,1486.45 138.959,47.2441 
  "/>
<polyline clip-path="url(#clip080)" style="stroke:#000000; stroke-linecap:round; stroke-linejoin:round; stroke-width:4; stroke-opacity:1; fill:none" points="
  138.959,1345.48 157.857,1345.48 
  "/>
<polyline clip-path="url(#clip080)" style="stroke:#000000; stroke-linecap:round; stroke-linejoin:round; stroke-width:4; stroke-opacity:1; fill:none" points="
  138.959,954.827 157.857,954.827 
  "/>
<polyline clip-path="url(#clip080)" style="stroke:#000000; stroke-linecap:round; stroke-linejoin:round; stroke-width:4; stroke-opacity:1; fill:none" points="
  138.959,564.178 157.857,564.178 
  "/>
<polyline clip-path="url(#clip080)" style="stroke:#000000; stroke-linecap:round; stroke-linejoin:round; stroke-width:4; stroke-opacity:1; fill:none" points="
  138.959,173.53 157.857,173.53 
  "/>
<path clip-path="url(#clip080)" d="M91.0151 1331.27 Q87.404 1331.27 85.5753 1334.84 Q83.7697 1338.38 83.7697 1345.51 Q83.7697 1352.62 85.5753 1356.18 Q87.404 1359.72 91.0151 1359.72 Q94.6493 1359.72 96.4548 1356.18 Q98.2835 1352.62 98.2835 1345.51 Q98.2835 1338.38 96.4548 1334.84 Q94.6493 1331.27 91.0151 1331.27 M91.0151 1327.57 Q96.8252 1327.57 99.8808 1332.18 Q102.959 1336.76 102.959 1345.51 Q102.959 1354.24 99.8808 1358.84 Q96.8252 1363.43 91.0151 1363.43 Q85.2049 1363.43 82.1262 1358.84 Q79.0707 1354.24 79.0707 1345.51 Q79.0707 1336.76 82.1262 1332.18 Q85.2049 1327.57 91.0151 1327.57 Z" fill="#000000" fill-rule="evenodd" fill-opacity="1" /><path clip-path="url(#clip080)" d="M82.0568 937.547 L100.413 937.547 L100.413 941.482 L86.3392 941.482 L86.3392 949.954 Q87.3577 949.607 88.3762 949.445 Q89.3947 949.26 90.4132 949.26 Q96.2002 949.26 99.5798 952.431 Q102.959 955.602 102.959 961.019 Q102.959 966.598 99.4872 969.7 Q96.015 972.778 89.6956 972.778 Q87.5197 972.778 85.2512 972.408 Q83.0058 972.038 80.5984 971.297 L80.5984 966.598 Q82.6818 967.732 84.904 968.288 Q87.1262 968.843 89.603 968.843 Q93.6076 968.843 95.9456 966.737 Q98.2835 964.63 98.2835 961.019 Q98.2835 957.408 95.9456 955.302 Q93.6076 953.195 89.603 953.195 Q87.728 953.195 85.8531 953.612 Q84.0012 954.028 82.0568 954.908 L82.0568 937.547 Z" fill="#000000" fill-rule="evenodd" fill-opacity="1" /><path clip-path="url(#clip080)" d="M51.6634 577.523 L59.3023 577.523 L59.3023 551.158 L50.9921 552.824 L50.9921 548.565 L59.256 546.898 L63.9319 546.898 L63.9319 577.523 L71.5707 577.523 L71.5707 581.458 L51.6634 581.458 L51.6634 577.523 Z" fill="#000000" fill-rule="evenodd" fill-opacity="1" /><path clip-path="url(#clip080)" d="M91.0151 549.977 Q87.404 549.977 85.5753 553.542 Q83.7697 557.084 83.7697 564.213 Q83.7697 571.32 85.5753 574.884 Q87.404 578.426 91.0151 578.426 Q94.6493 578.426 96.4548 574.884 Q98.2835 571.32 98.2835 564.213 Q98.2835 557.084 96.4548 553.542 Q94.6493 549.977 91.0151 549.977 M91.0151 546.273 Q96.8252 546.273 99.8808 550.88 Q102.959 555.463 102.959 564.213 Q102.959 572.94 99.8808 577.546 Q96.8252 582.13 91.0151 582.13 Q85.2049 582.13 82.1262 577.546 Q79.0707 572.94 79.0707 564.213 Q79.0707 555.463 82.1262 550.88 Q85.2049 546.273 91.0151 546.273 Z" fill="#000000" fill-rule="evenodd" fill-opacity="1" /><path clip-path="url(#clip080)" d="M52.6588 186.875 L60.2976 186.875 L60.2976 160.509 L51.9875 162.176 L51.9875 157.917 L60.2513 156.25 L64.9272 156.25 L64.9272 186.875 L72.5661 186.875 L72.5661 190.81 L52.6588 190.81 L52.6588 186.875 Z" fill="#000000" fill-rule="evenodd" fill-opacity="1" /><path clip-path="url(#clip080)" d="M82.0568 156.25 L100.413 156.25 L100.413 160.185 L86.3392 160.185 L86.3392 168.657 Q87.3577 168.31 88.3762 168.148 Q89.3947 167.963 90.4132 167.963 Q96.2002 167.963 99.5798 171.134 Q102.959 174.305 102.959 179.722 Q102.959 185.301 99.4872 188.403 Q96.015 191.481 89.6956 191.481 Q87.5197 191.481 85.2512 191.111 Q83.0058 190.74 80.5984 190 L80.5984 185.301 Q82.6818 186.435 84.904 186.99 Q87.1262 187.546 89.603 187.546 Q93.6076 187.546 95.9456 185.44 Q98.2835 183.333 98.2835 179.722 Q98.2835 176.111 95.9456 174.004 Q93.6076 171.898 89.603 171.898 Q87.728 171.898 85.8531 172.315 Q84.0012 172.731 82.0568 173.611 L82.0568 156.25 Z" fill="#000000" fill-rule="evenodd" fill-opacity="1" /><polyline clip-path="url(#clip082)" style="stroke:#009af9; stroke-linecap:round; stroke-linejoin:round; stroke-width:4; stroke-opacity:1; fill:none" points="
  201.614,1320.51 205.799,1336.18 209.985,1337.73 214.17,1336.86 218.355,1312.17 222.541,1339.36 226.726,1322.73 230.911,1326 235.097,1330.93 239.282,1332.65 
  243.468,1307.05 247.653,1315.62 251.838,1327.36 256.024,1336.4 260.209,1350.11 264.394,1343.78 268.58,1355.39 272.765,1322.35 276.95,1295 281.136,1333.28 
  285.321,1345.34 289.506,1365.91 293.692,1360.8 297.877,1342.82 302.062,1311.12 306.248,1294.48 310.433,1329.06 314.618,1311.8 318.804,1306.6 322.989,1315.84 
  327.174,1320.61 331.36,1331.57 335.545,1318.51 339.73,1302.37 343.916,1295.48 348.101,1334.17 352.286,1317.93 356.472,1304.73 360.657,1329.56 364.843,1321.35 
  369.028,1283.52 373.213,1272.97 377.399,1269.06 381.584,1261.55 385.769,1287.57 389.955,1325.23 394.14,1316.48 398.325,1346.45 402.511,1384.67 406.696,1408.44 
  410.881,1373.62 415.067,1375.03 419.252,1360.49 423.437,1377.51 427.623,1356 431.808,1353.67 435.993,1348.35 440.179,1313.89 444.364,1335.57 448.549,1332.08 
  452.735,1370.16 456.92,1403.03 461.105,1375.91 465.291,1392.12 469.476,1363.3 473.661,1356.01 477.847,1335.25 482.032,1350.26 486.218,1323.72 490.403,1360.35 
  494.588,1372.81 498.774,1348.18 502.959,1338.02 507.144,1370.42 511.33,1348.79 515.515,1353.7 519.7,1330.91 523.886,1300.91 528.071,1275.92 532.256,1300.93 
  536.442,1303.27 540.627,1276.06 544.812,1277.43 548.998,1253.23 553.183,1250.46 557.368,1238.82 561.554,1233.44 565.739,1270.96 569.924,1240.94 574.11,1253.46 
  578.295,1245.87 582.48,1232.2 586.666,1269.55 590.851,1291.04 595.037,1281.94 599.222,1310.01 603.407,1272.02 607.593,1271.12 611.778,1291.96 615.963,1261.68 
  620.149,1291.14 624.334,1276.16 628.519,1253 632.705,1219.65 636.89,1257.88 641.075,1235.54 645.261,1196.94 649.446,1205.91 653.631,1207.28 657.817,1200.82 
  662.002,1176.44 666.187,1171.31 670.373,1208.38 674.558,1234.89 678.743,1268.34 682.929,1247.28 687.114,1262.09 691.299,1274.5 695.485,1278.76 699.67,1256.93 
  703.855,1223.71 708.041,1214.89 712.226,1189.16 716.412,1177.77 720.597,1208.95 724.782,1195.98 728.968,1175.98 733.153,1164.98 737.338,1186.79 741.524,1223.81 
  745.709,1217.02 749.894,1239.69 754.08,1229.7 758.265,1210.79 762.45,1180.35 766.636,1201.38 770.821,1173.31 775.006,1153.52 779.192,1121.46 783.377,1101.33 
  787.562,1074.95 791.748,1091.01 795.933,1083.42 800.118,1056.37 804.304,1074.43 808.489,1098.68 812.674,1134.73 816.86,1097.1 821.045,1082.52 825.23,1100.4 
  829.416,1064.85 833.601,1091.35 837.787,1109.97 841.972,1071.63 846.157,1076.73 850.343,1078.31 854.528,1050.69 858.713,1015.99 862.899,1019.56 867.084,1024.41 
  871.269,1007.16 875.455,1026.32 879.64,1036.93 883.825,1056.66 888.011,1034.85 892.196,1005.75 896.381,1017.32 900.567,1039.62 904.752,1057.07 908.937,1085.98 
  913.123,1083.87 917.308,1116.91 921.493,1119.64 925.679,1101.45 929.864,1119.08 934.049,1111.22 938.235,1135.4 942.42,1144.82 946.605,1164.39 950.791,1146.21 
  954.976,1125.82 959.162,1158.85 963.347,1188.81 967.532,1175.18 971.718,1213.6 975.903,1205.44 980.088,1180.01 984.274,1182.12 988.459,1172.51 992.644,1163.68 
  996.83,1128.11 1001.01,1101.02 1005.2,1108.13 1009.39,1121.04 1013.57,1093.16 1017.76,1067.04 1021.94,1090.41 1026.13,1114.44 1030.31,1078 1034.5,1056.09 
  1038.68,1048.27 1042.87,1063.63 1047.05,1049.7 1051.24,1062.15 1055.42,1079.41 1059.61,1086.29 1063.8,1051.65 1067.98,1079.34 1072.17,1069.54 1076.35,1069.3 
  1080.54,1033.58 1084.72,1056.48 1088.91,1022.68 1093.09,1046.89 1097.28,1032.47 1101.46,1017.83 1105.65,1022.25 1109.83,997.887 1114.02,1008.79 1118.2,979.498 
  1122.39,985.48 1126.58,1021.12 1130.76,998.967 1134.95,981.833 1139.13,969.349 1143.32,987.683 1147.5,952.467 1151.69,928.433 1155.87,911.448 1160.06,883.656 
  1164.24,850.944 1168.43,814.027 1172.61,775.704 1176.8,797.424 1180.98,758.724 1185.17,751.726 1189.36,725.565 1193.54,735.116 1197.73,705.578 1201.91,712.728 
  1206.1,740.693 1210.28,751.789 1214.47,783.702 1218.65,760.763 1222.84,787.871 1227.02,758.281 1231.21,719.702 1235.39,692.225 1239.58,691.959 1243.77,661.2 
  1247.95,657.896 1252.14,693.366 1256.32,655.522 1260.51,641.189 1264.69,649.082 1268.88,673.299 1273.06,711.947 1277.25,694.497 1281.43,703.314 1285.62,716.626 
  1289.8,724.275 1293.99,695.309 1298.17,656.333 1302.36,661.518 1306.55,696.763 1310.73,733.375 1314.92,734.943 1319.1,722.245 1323.29,693.653 1327.47,720.217 
  1331.66,701.543 1335.84,706.053 1340.03,668.16 1344.21,647.965 1348.4,627.872 1352.58,635.908 1356.77,639.754 1360.95,672.483 1365.14,637.099 1369.33,655.1 
  1373.51,622.822 1377.7,599.631 1381.88,627.338 1386.07,640.711 1390.25,653.931 1394.44,676.025 1398.62,639.504 1402.81,613.228 1406.99,580.787 1411.18,551.573 
  1415.36,551.064 1419.55,515.476 1423.73,500.58 1427.92,478.47 1432.11,501.993 1436.29,493.187 1440.48,472.945 1444.66,463.595 1448.85,484.265 1453.03,510.752 
  1457.22,545.505 1461.4,506.665 1465.59,509.045 1469.77,488.359 1473.96,508.415 1478.14,490.815 1482.33,466.853 1486.52,501.324 1490.7,465.407 1494.89,454.925 
  1499.07,446.191 1503.26,477.434 1507.44,452.443 1511.63,473.529 1515.81,436.361 1520,446.53 1524.18,437.135 1528.37,452.073 1532.55,423.762 1536.74,406.147 
  1540.92,440.835 1545.11,433.608 1549.3,445.812 1553.48,418.793 1557.67,391.549 1561.85,381.139 1566.04,368.562 1570.22,391.303 1574.41,360.402 1578.59,367.886 
  1582.78,335.057 1586.96,343.348 1591.15,320.289 1595.33,331.559 1599.52,326.689 1603.7,289.716 1607.89,312.879 1612.08,295.143 1616.26,269.646 1620.45,239.38 
  1624.63,228.354 1628.82,210.186 1633,174.018 1637.19,199.331 1641.37,218.601 1645.56,246.945 1649.74,230.949 1653.93,200.844 1658.11,239.176 1662.3,239.9 
  1666.48,254.65 1670.67,254.357 1674.86,267.791 1679.04,234.917 1683.23,217.272 1687.41,237.767 1691.6,202.581 1695.78,231.276 1699.97,262.239 1704.15,266.386 
  1708.34,262.486 1712.52,255.077 1716.71,252.16 1720.89,224.792 1725.08,248.281 1729.27,267.494 1733.45,261.671 1737.64,277.6 1741.82,301.701 1746.01,308.139 
  1750.19,340.628 1754.38,309.043 1758.56,326.93 1762.75,292.409 1766.93,299.475 1771.12,297.208 1775.3,293.926 1779.49,275.497 1783.67,237.92 1787.86,268.799 
  1792.05,283.686 1796.23,285.348 1800.42,277.199 1804.6,278.348 1808.79,304.212 1812.97,336.846 1817.16,323.448 1821.34,309.421 1825.53,321.288 1829.71,322.861 
  1833.9,341.414 1838.08,305.176 1842.27,321.93 1846.45,345.932 1850.64,308.68 1854.83,303.952 1859.01,303.245 1863.2,289.32 1867.38,264.735 1871.57,284.181 
  1875.75,296.993 1879.94,290.482 1884.12,259.881 1888.31,246.002 1892.49,280.254 1896.68,262.872 1900.86,287.575 1905.05,251.869 1909.23,260.256 1913.42,248.996 
  1917.61,218.595 1921.79,249.384 1925.98,234.936 1930.16,262.994 1934.35,296.184 1938.53,281.327 1942.72,255.45 1946.9,275.346 1951.09,300.865 1955.27,288.851 
  1959.46,267.009 1963.64,286.451 1967.83,260.262 1972.02,262.916 1976.2,248.793 1980.39,285.87 1984.57,312.891 1988.76,347.924 1992.94,310.649 1997.13,300.806 
  2001.31,266.113 2005.5,295.237 2009.68,277.69 2013.87,263.55 2018.05,276.655 2022.24,315.616 2026.42,296.281 2030.61,275.228 2034.8,241.498 2038.98,224.568 
  2043.17,195.553 2047.35,228.98 2051.54,240.837 2055.72,222.156 2059.91,186.739 2064.09,154.523 2068.28,144.669 2072.46,166.39 2076.65,138.722 2080.83,149.176 
  2085.02,150.982 2089.2,179.959 2093.39,215.515 2097.58,216.304 2101.76,201.9 2105.95,171.24 2110.13,142.626 2114.32,109.877 2118.5,87.9763 2122.69,125.658 
  2126.87,154.953 2131.06,150.459 2135.24,167.467 2139.43,152.771 2143.61,145.086 2147.8,141.361 2151.98,166.883 2156.17,188.297 2160.36,171.408 2164.54,145.786 
  2168.73,159.154 2172.91,125.596 2177.1,121.346 2181.28,160.12 2185.47,156.507 2189.65,161.451 2193.84,172.157 2198.02,196.003 2202.21,209.214 2206.39,174.421 
  2210.58,199.637 2214.77,198.243 2218.95,231.233 2223.14,230.173 2227.32,250.297 2231.51,283.289 2235.69,318.248 2239.88,320.89 2244.06,310.45 2248.25,284.752 
  2252.43,272.634 2256.62,249.361 2260.8,224.673 2264.99,230.85 2269.17,208.92 2273.36,195.072 2277.55,190.4 2281.73,189.87 2285.92,167.159 2290.1,145.066 
  
  "/>
<polyline clip-path="url(#clip082)" style="stroke:#e26f46; stroke-linecap:round; stroke-linejoin:round; stroke-width:4; stroke-opacity:1; fill:none" points="
  201.614,1372.61 205.799,1378.22 209.985,1404.44 214.17,1386.2 218.355,1396.14 222.541,1362.96 226.726,1378.05 230.911,1380.48 235.097,1378.43 239.282,1379.9 
  243.468,1372.42 247.653,1403.22 251.838,1379.32 256.024,1354.77 260.209,1334.12 264.394,1298.58 268.58,1317.6 272.765,1332.78 276.95,1308.56 281.136,1283.01 
  285.321,1295.4 289.506,1317.96 293.692,1356.25 297.877,1345.18 302.062,1358.53 306.248,1356.61 310.433,1392.6 314.618,1378.56 318.804,1372.61 322.989,1387.74 
  327.174,1378.28 331.36,1384.97 335.545,1400.7 339.73,1387.3 343.916,1396.82 348.101,1366.09 352.286,1365.56 356.472,1397.89 360.657,1383.46 364.843,1401.91 
  369.028,1431.19 373.213,1445.72 377.399,1414.12 381.584,1412.83 385.769,1442.71 389.955,1430.69 394.14,1400.02 398.325,1374.58 402.511,1344.57 406.696,1380.6 
  410.881,1356.56 415.067,1392.72 419.252,1382.51 423.437,1419.34 427.623,1413.87 431.808,1393.82 435.993,1358.82 440.179,1332.8 444.364,1361.76 448.549,1386.39 
  452.735,1390.43 456.92,1374.62 461.105,1349.6 465.291,1336.21 469.476,1305.01 473.661,1270.34 477.847,1244.38 482.032,1228.4 486.218,1227.53 490.403,1201.97 
  494.588,1165.12 498.774,1173.68 502.959,1140.6 507.144,1117.17 511.33,1152.63 515.515,1146.64 519.7,1156.53 523.886,1142.77 528.071,1174.25 532.256,1167.82 
  536.442,1170.09 540.627,1183.78 544.812,1145.46 548.998,1125.85 553.183,1158.48 557.368,1171.77 561.554,1162.69 565.739,1149.46 569.924,1160.1 574.11,1176.59 
  578.295,1172.44 582.48,1205.15 586.666,1233.49 590.851,1196.68 595.037,1158.45 599.222,1167.34 603.407,1177.59 607.593,1189.16 611.778,1169.49 615.963,1131.33 
  620.149,1136.24 624.334,1133.58 628.519,1166.44 632.705,1132.12 636.89,1098.45 641.075,1081.37 645.261,1077.64 649.446,1040.47 653.631,1030.17 657.817,1049.57 
  662.002,1034.48 666.187,1050.42 670.373,1067.57 674.558,1103.44 678.743,1066.73 682.929,1060.45 687.114,1078.56 691.299,1082.11 695.485,1063.22 699.67,1064.4 
  703.855,1103.33 708.041,1131.5 712.226,1102.3 716.412,1122.98 720.597,1088.39 724.782,1117.48 728.968,1153.98 733.153,1180.67 737.338,1150.89 741.524,1113.05 
  745.709,1083.91 749.894,1070.26 754.08,1048.33 758.265,1024.7 762.45,1027.83 766.636,1035.97 770.821,1050.62 775.006,1023.02 779.192,1016.65 783.377,996.009 
  787.562,1030.85 791.748,1032.62 795.933,1063.69 800.118,1038.35 804.304,1051.92 808.489,1032.53 812.674,1055.55 816.86,1017.23 821.045,1043.01 825.23,1073.66 
  829.416,1036.26 833.601,1014.73 837.787,985.106 841.972,992.872 846.157,969.945 850.343,940.751 854.528,979.691 858.713,1012.37 862.899,1015.33 867.084,1029.25 
  871.269,1063.86 875.455,1033.77 879.64,1050.03 883.825,1076.25 888.011,1058.13 892.196,1054.88 896.381,1051.49 900.567,1029.75 904.752,1003.01 908.937,997.72 
  913.123,993.956 917.308,1010.23 921.493,992.992 925.679,1019.62 929.864,998.942 934.049,981.658 938.235,978.006 942.42,966.572 946.605,941.398 950.791,972.714 
  954.976,985.388 959.162,975.511 963.347,956.636 967.532,953.702 971.718,949.59 975.903,919.109 980.088,924.025 984.274,941.478 988.459,912.293 992.644,936.254 
  996.83,929.851 1001.01,892.207 1005.2,865.077 1009.39,831.866 1013.57,862.338 1017.76,897.967 1021.94,929.604 1026.13,901.832 1030.31,867.426 1034.5,886.94 
  1038.68,921.007 1042.87,951.385 1047.05,941.209 1051.24,959.57 1055.42,930.007 1059.61,900.291 1063.8,912.189 1067.98,874.462 1072.17,912.816 1076.35,893.315 
  1080.54,908.183 1084.72,939.599 1088.91,918.768 1093.09,952.662 1097.28,968.732 1101.46,932.762 1105.65,916.246 1109.83,905.918 1114.02,875.829 1118.2,847.67 
  1122.39,824.665 1126.58,833.469 1130.76,866.238 1134.95,874.714 1139.13,892.78 1143.32,880.135 1147.5,917.128 1151.69,953.162 1155.87,917.782 1160.06,908.245 
  1164.24,936.875 1168.43,948.084 1172.61,940.736 1176.8,917.671 1180.98,886.572 1185.17,905.466 1189.36,905.115 1193.54,907.297 1197.73,941.512 1201.91,903.467 
  1206.1,892.574 1210.28,926.502 1214.47,942.679 1218.65,929.077 1222.84,959.553 1227.02,973.746 1231.21,942.474 1235.39,945.395 1239.58,912.478 1243.77,882.155 
  1247.95,917.764 1252.14,894.892 1256.32,913.77 1260.51,890.916 1264.69,924.391 1268.88,897.51 1273.06,915.896 1277.25,881.292 1281.43,858.381 1285.62,826.349 
  1289.8,802.384 1293.99,803.64 1298.17,794.126 1302.36,786.76 1306.55,820.033 1310.73,793.757 1314.92,830.076 1319.1,813.03 1323.29,817.267 1327.47,826.194 
  1331.66,808.486 1335.84,847.505 1340.03,825.147 1344.21,859.917 1348.4,852.225 1352.58,838.312 1356.77,823.295 1360.95,842.768 1365.14,835.93 1369.33,860.2 
  1373.51,861.946 1377.7,843.242 1381.88,824.29 1386.07,847.128 1390.25,865.731 1394.44,896.558 1398.62,906.116 1402.81,927.529 1406.99,962.967 1411.18,935.404 
  1415.36,915.6 1419.55,944.325 1423.73,940.443 1427.92,920.367 1432.11,881.491 1436.29,889.008 1440.48,893.927 1444.66,858.156 1448.85,822.967 1453.03,787.789 
  1457.22,778.286 1461.4,794.501 1465.59,818.169 1469.77,784.665 1473.96,794.943 1478.14,786.112 1482.33,808.157 1486.52,834.8 1490.7,821.573 1494.89,853.769 
  1499.07,886.7 1503.26,875.071 1507.44,897.956 1511.63,901.248 1515.81,898.611 1520,884.619 1524.18,852.781 1528.37,845.534 1532.55,819.566 1536.74,820.116 
  1540.92,823.889 1545.11,796.07 1549.3,759.044 1553.48,787.344 1557.67,799.409 1561.85,810.603 1566.04,834.435 1570.22,860.429 1574.41,837.552 1578.59,833.685 
  1582.78,810.318 1586.96,823.173 1591.15,846.324 1595.33,810.839 1599.52,796.412 1603.7,782.403 1607.89,770.225 1612.08,808.335 1616.26,845.59 1620.45,871.625 
  1624.63,879.584 1628.82,845.319 1633,819.011 1637.19,831.044 1641.37,798.687 1645.56,820.174 1649.74,812.013 1653.93,824.868 1658.11,808.165 1662.3,792.081 
  1666.48,781.805 1670.67,786.11 1674.86,793.836 1679.04,807.225 1683.23,838.674 1687.41,823.606 1691.6,837.654 1695.78,801.582 1699.97,808.574 1704.15,825.791 
  1708.34,842.925 1712.52,850.805 1716.71,860.713 1720.89,857.478 1725.08,881.645 1729.27,848.01 1733.45,877.949 1737.64,896.275 1741.82,896.429 1746.01,865.289 
  1750.19,870.042 1754.38,842.588 1758.56,835.926 1762.75,860.961 1766.93,838.459 1771.12,813.413 1775.3,824.466 1779.49,837.048 1783.67,857.217 1787.86,888.539 
  1792.05,860.161 1796.23,829.37 1800.42,833.408 1804.6,831.963 1808.79,855.894 1812.97,822.673 1817.16,805.165 1821.34,792.791 1825.53,754.445 1829.71,749.537 
  1833.9,711.32 1838.08,677.487 1842.27,701.428 1846.45,718.823 1850.64,746.496 1854.83,749.74 1859.01,740.439 1863.2,777.594 1867.38,772.443 1871.57,745.63 
  1875.75,742.754 1879.94,744.654 1884.12,756.369 1888.31,719.138 1892.49,757.028 1896.68,767.944 1900.86,777.585 1905.05,792.032 1909.23,777.701 1913.42,772.794 
  1917.61,765.692 1921.79,751.175 1925.98,720.57 1930.16,692.682 1934.35,658.443 1938.53,624.522 1942.72,650.508 1946.9,647.869 1951.09,637.054 1955.27,601.578 
  1959.46,616.761 1963.64,653.622 1967.83,691.544 1972.02,696.328 1976.2,730.546 1980.39,727.236 1984.57,731.238 1988.76,718.509 1992.94,727.461 1997.13,708.223 
  2001.31,714.458 2005.5,735.486 2009.68,714.481 2013.87,737.67 2018.05,725.413 2022.24,741.776 2026.42,771.461 2030.61,737.435 2034.8,773.936 2038.98,775.87 
  2043.17,758.223 2047.35,730.482 2051.54,750.105 2055.72,732.99 2059.91,769.094 2064.09,764.101 2068.28,741.635 2072.46,741.931 2076.65,775.994 2080.83,772.273 
  2085.02,801.556 2089.2,796.735 2093.39,771.141 2097.58,741.072 2101.76,762.697 2105.95,757.258 2110.13,781.838 2114.32,782.352 2118.5,814.953 2122.69,851.719 
  2126.87,825.013 2131.06,824.067 2135.24,823.358 2139.43,790.549 2143.61,813.208 2147.8,788.263 2151.98,827.07 2156.17,841.731 2160.36,851.825 2164.54,848.603 
  2168.73,846.345 2172.91,834.433 2177.1,872.006 2181.28,866.011 2185.47,832.908 2189.65,822.013 2193.84,812.457 2198.02,850.856 2202.21,869.672 2206.39,858.166 
  2210.58,866.619 2214.77,877.639 2218.95,890.405 2223.14,864.025 2227.32,887.33 2231.51,882.716 2235.69,908.053 2239.88,905.064 2244.06,912.42 2248.25,897.021 
  2252.43,925.351 2256.62,929.907 2260.8,939.518 2264.99,940.186 2269.17,944.831 2273.36,931.134 2277.55,908.591 2281.73,945.97 2285.92,953.334 2290.1,915.719 
  
  "/>
<path clip-path="url(#clip080)" d="
M212.753 250.738 L486.563 250.738 L486.563 95.2176 L212.753 95.2176  Z
  " fill="#ffffff" fill-rule="evenodd" fill-opacity="1"/>
<polyline clip-path="url(#clip080)" style="stroke:#000000; stroke-linecap:round; stroke-linejoin:round; stroke-width:4; stroke-opacity:1; fill:none" points="
  212.753,250.738 486.563,250.738 486.563,95.2176 212.753,95.2176 212.753,250.738 
  "/>
<polyline clip-path="url(#clip080)" style="stroke:#009af9; stroke-linecap:round; stroke-linejoin:round; stroke-width:4; stroke-opacity:1; fill:none" points="
  237.35,147.058 384.937,147.058 
  "/>
<path clip-path="url(#clip080)" d="M423.377 166.745 Q421.572 171.375 419.859 172.787 Q418.146 174.199 415.275 174.199 L411.873 174.199 L411.873 170.634 L414.373 170.634 Q416.132 170.634 417.104 169.8 Q418.076 168.967 419.257 165.865 L420.021 163.921 L409.535 138.412 L414.048 138.412 L422.15 158.689 L430.252 138.412 L434.766 138.412 L423.377 166.745 Z" fill="#000000" fill-rule="evenodd" fill-opacity="1" /><path clip-path="url(#clip080)" d="M442.058 160.402 L449.696 160.402 L449.696 134.037 L441.386 135.703 L441.386 131.444 L449.65 129.778 L454.326 129.778 L454.326 160.402 L461.965 160.402 L461.965 164.338 L442.058 164.338 L442.058 160.402 Z" fill="#000000" fill-rule="evenodd" fill-opacity="1" /><polyline clip-path="url(#clip080)" style="stroke:#e26f46; stroke-linecap:round; stroke-linejoin:round; stroke-width:4; stroke-opacity:1; fill:none" points="
  237.35,198.898 384.937,198.898 
  "/>
<path clip-path="url(#clip080)" d="M423.377 218.585 Q421.572 223.215 419.859 224.627 Q418.146 226.039 415.275 226.039 L411.873 226.039 L411.873 222.474 L414.373 222.474 Q416.132 222.474 417.104 221.64 Q418.076 220.807 419.257 217.705 L420.021 215.761 L409.535 190.252 L414.048 190.252 L422.15 210.529 L430.252 190.252 L434.766 190.252 L423.377 218.585 Z" fill="#000000" fill-rule="evenodd" fill-opacity="1" /><path clip-path="url(#clip080)" d="M445.275 212.242 L461.594 212.242 L461.594 216.178 L439.65 216.178 L439.65 212.242 Q442.312 209.488 446.895 204.858 Q451.502 200.205 452.682 198.863 Q454.928 196.34 455.807 194.604 Q456.71 192.844 456.71 191.155 Q456.71 188.4 454.766 186.664 Q452.845 184.928 449.743 184.928 Q447.544 184.928 445.09 185.692 Q442.659 186.455 439.882 188.006 L439.882 183.284 Q442.706 182.15 445.159 181.571 Q447.613 180.993 449.65 180.993 Q455.02 180.993 458.215 183.678 Q461.409 186.363 461.409 190.854 Q461.409 192.983 460.599 194.905 Q459.812 196.803 457.706 199.395 Q457.127 200.067 454.025 203.284 Q450.923 206.479 445.275 212.242 Z" fill="#000000" fill-rule="evenodd" fill-opacity="1" /></svg>
