<?xml version="1.0" encoding="utf-8"?>
<svg xmlns="http://www.w3.org/2000/svg" xmlns:xlink="http://www.w3.org/1999/xlink" width="600" height="400" viewBox="0 0 2400 1600">
<defs>
  <clipPath id="clip970">
    <rect x="0" y="0" width="2400" height="1600"/>
  </clipPath>
</defs>
<path clip-path="url(#clip970)" d="
M0 1600 L2400 1600 L2400 0 L0 0  Z
  " fill="#ffffff" fill-rule="evenodd" fill-opacity="1"/>
<defs>
  <clipPath id="clip971">
    <rect x="480" y="0" width="1681" height="1600"/>
  </clipPath>
</defs>
<path clip-path="url(#clip970)" d="
M194.422 1486.45 L2352.76 1486.45 L2352.76 47.2441 L194.422 47.2441  Z
  " fill="#ffffff" fill-rule="evenodd" fill-opacity="1"/>
<defs>
  <clipPath id="clip972">
    <rect x="194" y="47" width="2159" height="1440"/>
  </clipPath>
</defs>
<polyline clip-path="url(#clip972)" style="stroke:#000000; stroke-linecap:round; stroke-linejoin:round; stroke-width:2; stroke-opacity:0.1; fill:none" points="
  463.425,1486.45 463.425,47.2441 
  "/>
<polyline clip-path="url(#clip972)" style="stroke:#000000; stroke-linecap:round; stroke-linejoin:round; stroke-width:2; stroke-opacity:0.1; fill:none" points="
  868.507,1486.45 868.507,47.2441 
  "/>
<polyline clip-path="url(#clip972)" style="stroke:#000000; stroke-linecap:round; stroke-linejoin:round; stroke-width:2; stroke-opacity:0.1; fill:none" points="
  1273.59,1486.45 1273.59,47.2441 
  "/>
<polyline clip-path="url(#clip972)" style="stroke:#000000; stroke-linecap:round; stroke-linejoin:round; stroke-width:2; stroke-opacity:0.1; fill:none" points="
  1678.67,1486.45 1678.67,47.2441 
  "/>
<polyline clip-path="url(#clip972)" style="stroke:#000000; stroke-linecap:round; stroke-linejoin:round; stroke-width:2; stroke-opacity:0.1; fill:none" points="
  2083.75,1486.45 2083.75,47.2441 
  "/>
<polyline clip-path="url(#clip970)" style="stroke:#000000; stroke-linecap:round; stroke-linejoin:round; stroke-width:4; stroke-opacity:1; fill:none" points="
  194.422,1486.45 2352.76,1486.45 
  "/>
<polyline clip-path="url(#clip970)" style="stroke:#000000; stroke-linecap:round; stroke-linejoin:round; stroke-width:4; stroke-opacity:1; fill:none" points="
  463.425,1486.45 463.425,1467.55 
  "/>
<polyline clip-path="url(#clip970)" style="stroke:#000000; stroke-linecap:round; stroke-linejoin:round; stroke-width:4; stroke-opacity:1; fill:none" points="
  868.507,1486.45 868.507,1467.55 
  "/>
<polyline clip-path="url(#clip970)" style="stroke:#000000; stroke-linecap:round; stroke-linejoin:round; stroke-width:4; stroke-opacity:1; fill:none" points="
  1273.59,1486.45 1273.59,1467.55 
  "/>
<polyline clip-path="url(#clip970)" style="stroke:#000000; stroke-linecap:round; stroke-linejoin:round; stroke-width:4; stroke-opacity:1; fill:none" points="
  1678.67,1486.45 1678.67,1467.55 
  "/>
<polyline clip-path="url(#clip970)" style="stroke:#000000; stroke-linecap:round; stroke-linejoin:round; stroke-width:4; stroke-opacity:1; fill:none" points="
  2083.75,1486.45 2083.75,1467.55 
  "/>
<path clip-path="url(#clip970)" d="M409.953 1532.02 L439.629 1532.02 L439.629 1535.95 L409.953 1535.95 L409.953 1532.02 Z" fill="#000000" fill-rule="evenodd" fill-opacity="1" /><path clip-path="url(#clip970)" d="M449.768 1514.29 L468.124 1514.29 L468.124 1518.22 L454.05 1518.22 L454.05 1526.7 Q455.069 1526.35 456.087 1526.19 Q457.106 1526 458.124 1526 Q463.911 1526 467.291 1529.17 Q470.67 1532.34 470.67 1537.76 Q470.67 1543.34 467.198 1546.44 Q463.726 1549.52 457.407 1549.52 Q455.231 1549.52 452.962 1549.15 Q450.717 1548.78 448.309 1548.04 L448.309 1543.34 Q450.393 1544.47 452.615 1545.03 Q454.837 1545.58 457.314 1545.58 Q461.319 1545.58 463.657 1543.48 Q465.995 1541.37 465.995 1537.76 Q465.995 1534.15 463.657 1532.04 Q461.319 1529.94 457.314 1529.94 Q455.439 1529.94 453.564 1530.35 Q451.712 1530.77 449.768 1531.65 L449.768 1514.29 Z" fill="#000000" fill-rule="evenodd" fill-opacity="1" /><path clip-path="url(#clip970)" d="M479.883 1542.97 L484.768 1542.97 L484.768 1548.85 L479.883 1548.85 L479.883 1542.97 Z" fill="#000000" fill-rule="evenodd" fill-opacity="1" /><path clip-path="url(#clip970)" d="M504.953 1517.37 Q501.342 1517.37 499.513 1520.93 Q497.707 1524.47 497.707 1531.6 Q497.707 1538.71 499.513 1542.27 Q501.342 1545.82 504.953 1545.82 Q508.587 1545.82 510.392 1542.27 Q512.221 1538.71 512.221 1531.6 Q512.221 1524.47 510.392 1520.93 Q508.587 1517.37 504.953 1517.37 M504.953 1513.66 Q510.763 1513.66 513.818 1518.27 Q516.897 1522.85 516.897 1531.6 Q516.897 1540.33 513.818 1544.94 Q510.763 1549.52 504.953 1549.52 Q499.143 1549.52 496.064 1544.94 Q493.008 1540.33 493.008 1531.6 Q493.008 1522.85 496.064 1518.27 Q499.143 1513.66 504.953 1513.66 Z" fill="#000000" fill-rule="evenodd" fill-opacity="1" /><path clip-path="url(#clip970)" d="M815.533 1532.02 L845.209 1532.02 L845.209 1535.95 L815.533 1535.95 L815.533 1532.02 Z" fill="#000000" fill-rule="evenodd" fill-opacity="1" /><path clip-path="url(#clip970)" d="M859.329 1544.91 L875.648 1544.91 L875.648 1548.85 L853.704 1548.85 L853.704 1544.91 Q856.366 1542.16 860.949 1537.53 Q865.556 1532.88 866.736 1531.53 Q868.982 1529.01 869.861 1527.27 Q870.764 1525.51 870.764 1523.82 Q870.764 1521.07 868.82 1519.33 Q866.898 1517.6 863.796 1517.6 Q861.597 1517.6 859.144 1518.36 Q856.713 1519.13 853.935 1520.68 L853.935 1515.95 Q856.759 1514.82 859.213 1514.24 Q861.667 1513.66 863.704 1513.66 Q869.074 1513.66 872.269 1516.35 Q875.463 1519.03 875.463 1523.52 Q875.463 1525.65 874.653 1527.57 Q873.866 1529.47 871.759 1532.07 Q871.181 1532.74 868.079 1535.95 Q864.977 1539.15 859.329 1544.91 Z" fill="#000000" fill-rule="evenodd" fill-opacity="1" /><path clip-path="url(#clip970)" d="M885.463 1542.97 L890.347 1542.97 L890.347 1548.85 L885.463 1548.85 L885.463 1542.97 Z" fill="#000000" fill-rule="evenodd" fill-opacity="1" /><path clip-path="url(#clip970)" d="M900.579 1514.29 L918.935 1514.29 L918.935 1518.22 L904.861 1518.22 L904.861 1526.7 Q905.88 1526.35 906.898 1526.19 Q907.917 1526 908.935 1526 Q914.722 1526 918.102 1529.17 Q921.481 1532.34 921.481 1537.76 Q921.481 1543.34 918.009 1546.44 Q914.537 1549.52 908.217 1549.52 Q906.042 1549.52 903.773 1549.15 Q901.528 1548.78 899.12 1548.04 L899.12 1543.34 Q901.204 1544.47 903.426 1545.03 Q905.648 1545.58 908.125 1545.58 Q912.13 1545.58 914.467 1543.48 Q916.805 1541.37 916.805 1537.76 Q916.805 1534.15 914.467 1532.04 Q912.13 1529.94 908.125 1529.94 Q906.25 1529.94 904.375 1530.35 Q902.523 1530.77 900.579 1531.65 L900.579 1514.29 Z" fill="#000000" fill-rule="evenodd" fill-opacity="1" /><path clip-path="url(#clip970)" d="M1250.97 1517.37 Q1247.36 1517.37 1245.53 1520.93 Q1243.73 1524.47 1243.73 1531.6 Q1243.73 1538.71 1245.53 1542.27 Q1247.36 1545.82 1250.97 1545.82 Q1254.61 1545.82 1256.41 1542.27 Q1258.24 1538.71 1258.24 1531.6 Q1258.24 1524.47 1256.41 1520.93 Q1254.61 1517.37 1250.97 1517.37 M1250.97 1513.66 Q1256.78 1513.66 1259.84 1518.27 Q1262.92 1522.85 1262.92 1531.6 Q1262.92 1540.33 1259.84 1544.94 Q1256.78 1549.52 1250.97 1549.52 Q1245.16 1549.52 1242.08 1544.94 Q1239.03 1540.33 1239.03 1531.6 Q1239.03 1522.85 1242.08 1518.27 Q1245.16 1513.66 1250.97 1513.66 Z" fill="#000000" fill-rule="evenodd" fill-opacity="1" /><path clip-path="url(#clip970)" d="M1271.14 1542.97 L1276.02 1542.97 L1276.02 1548.85 L1271.14 1548.85 L1271.14 1542.97 Z" fill="#000000" fill-rule="evenodd" fill-opacity="1" /><path clip-path="url(#clip970)" d="M1296.2 1517.37 Q1292.59 1517.37 1290.76 1520.93 Q1288.96 1524.47 1288.96 1531.6 Q1288.96 1538.71 1290.76 1542.27 Q1292.59 1545.82 1296.2 1545.82 Q1299.84 1545.82 1301.64 1542.27 Q1303.47 1538.71 1303.47 1531.6 Q1303.47 1524.47 1301.64 1520.93 Q1299.84 1517.37 1296.2 1517.37 M1296.2 1513.66 Q1302.01 1513.66 1305.07 1518.27 Q1308.15 1522.85 1308.15 1531.6 Q1308.15 1540.33 1305.07 1544.94 Q1302.01 1549.52 1296.2 1549.52 Q1290.39 1549.52 1287.32 1544.94 Q1284.26 1540.33 1284.26 1531.6 Q1284.26 1522.85 1287.32 1518.27 Q1290.39 1513.66 1296.2 1513.66 Z" fill="#000000" fill-rule="evenodd" fill-opacity="1" /><path clip-path="url(#clip970)" d="M1650.41 1544.91 L1666.73 1544.91 L1666.73 1548.85 L1644.78 1548.85 L1644.78 1544.91 Q1647.44 1542.16 1652.03 1537.53 Q1656.63 1532.88 1657.81 1531.53 Q1660.06 1529.01 1660.94 1527.27 Q1661.84 1525.51 1661.84 1523.82 Q1661.84 1521.07 1659.9 1519.33 Q1657.98 1517.6 1654.87 1517.6 Q1652.68 1517.6 1650.22 1518.36 Q1647.79 1519.13 1645.01 1520.68 L1645.01 1515.95 Q1647.84 1514.82 1650.29 1514.24 Q1652.75 1513.66 1654.78 1513.66 Q1660.15 1513.66 1663.35 1516.35 Q1666.54 1519.03 1666.54 1523.52 Q1666.54 1525.65 1665.73 1527.57 Q1664.94 1529.47 1662.84 1532.07 Q1662.26 1532.74 1659.16 1535.95 Q1656.06 1539.15 1650.41 1544.91 Z" fill="#000000" fill-rule="evenodd" fill-opacity="1" /><path clip-path="url(#clip970)" d="M1676.54 1542.97 L1681.43 1542.97 L1681.43 1548.85 L1676.54 1548.85 L1676.54 1542.97 Z" fill="#000000" fill-rule="evenodd" fill-opacity="1" /><path clip-path="url(#clip970)" d="M1691.66 1514.29 L1710.01 1514.29 L1710.01 1518.22 L1695.94 1518.22 L1695.94 1526.7 Q1696.96 1526.35 1697.98 1526.19 Q1698.99 1526 1700.01 1526 Q1705.8 1526 1709.18 1529.17 Q1712.56 1532.34 1712.56 1537.76 Q1712.56 1543.34 1709.09 1546.44 Q1705.62 1549.52 1699.3 1549.52 Q1697.12 1549.52 1694.85 1549.15 Q1692.61 1548.78 1690.2 1548.04 L1690.2 1543.34 Q1692.28 1544.47 1694.5 1545.03 Q1696.73 1545.58 1699.2 1545.58 Q1703.21 1545.58 1705.55 1543.48 Q1707.88 1541.37 1707.88 1537.76 Q1707.88 1534.15 1705.55 1532.04 Q1703.21 1529.94 1699.2 1529.94 Q1697.33 1529.94 1695.45 1530.35 Q1693.6 1530.77 1691.66 1531.65 L1691.66 1514.29 Z" fill="#000000" fill-rule="evenodd" fill-opacity="1" /><path clip-path="url(#clip970)" d="M2050.92 1514.29 L2069.27 1514.29 L2069.27 1518.22 L2055.2 1518.22 L2055.2 1526.7 Q2056.22 1526.35 2057.24 1526.19 Q2058.26 1526 2059.27 1526 Q2065.06 1526 2068.44 1529.17 Q2071.82 1532.34 2071.82 1537.76 Q2071.82 1543.34 2068.35 1546.44 Q2064.88 1549.52 2058.56 1549.52 Q2056.38 1549.52 2054.11 1549.15 Q2051.87 1548.78 2049.46 1548.04 L2049.46 1543.34 Q2051.54 1544.47 2053.76 1545.03 Q2055.99 1545.58 2058.46 1545.58 Q2062.47 1545.58 2064.81 1543.48 Q2067.14 1541.37 2067.14 1537.76 Q2067.14 1534.15 2064.81 1532.04 Q2062.47 1529.94 2058.46 1529.94 Q2056.59 1529.94 2054.71 1530.35 Q2052.86 1530.77 2050.92 1531.65 L2050.92 1514.29 Z" fill="#000000" fill-rule="evenodd" fill-opacity="1" /><path clip-path="url(#clip970)" d="M2081.03 1542.97 L2085.92 1542.97 L2085.92 1548.85 L2081.03 1548.85 L2081.03 1542.97 Z" fill="#000000" fill-rule="evenodd" fill-opacity="1" /><path clip-path="url(#clip970)" d="M2106.1 1517.37 Q2102.49 1517.37 2100.66 1520.93 Q2098.86 1524.47 2098.86 1531.6 Q2098.86 1538.71 2100.66 1542.27 Q2102.49 1545.82 2106.1 1545.82 Q2109.74 1545.82 2111.54 1542.27 Q2113.37 1538.71 2113.37 1531.6 Q2113.37 1524.47 2111.54 1520.93 Q2109.74 1517.37 2106.1 1517.37 M2106.1 1513.66 Q2111.91 1513.66 2114.97 1518.27 Q2118.05 1522.85 2118.05 1531.6 Q2118.05 1540.33 2114.97 1544.94 Q2111.91 1549.52 2106.1 1549.52 Q2100.29 1549.52 2097.21 1544.94 Q2094.16 1540.33 2094.16 1531.6 Q2094.16 1522.85 2097.21 1518.27 Q2100.29 1513.66 2106.1 1513.66 Z" fill="#000000" fill-rule="evenodd" fill-opacity="1" /><polyline clip-path="url(#clip972)" style="stroke:#000000; stroke-linecap:round; stroke-linejoin:round; stroke-width:2; stroke-opacity:0.1; fill:none" points="
  194.422,1309.95 2352.76,1309.95 
  "/>
<polyline clip-path="url(#clip972)" style="stroke:#000000; stroke-linecap:round; stroke-linejoin:round; stroke-width:2; stroke-opacity:0.1; fill:none" points="
  194.422,1038.39 2352.76,1038.39 
  "/>
<polyline clip-path="url(#clip972)" style="stroke:#000000; stroke-linecap:round; stroke-linejoin:round; stroke-width:2; stroke-opacity:0.1; fill:none" points="
  194.422,766.832 2352.76,766.832 
  "/>
<polyline clip-path="url(#clip972)" style="stroke:#000000; stroke-linecap:round; stroke-linejoin:round; stroke-width:2; stroke-opacity:0.1; fill:none" points="
  194.422,495.272 2352.76,495.272 
  "/>
<polyline clip-path="url(#clip972)" style="stroke:#000000; stroke-linecap:round; stroke-linejoin:round; stroke-width:2; stroke-opacity:0.1; fill:none" points="
  194.422,223.713 2352.76,223.713 
  "/>
<polyline clip-path="url(#clip970)" style="stroke:#000000; stroke-linecap:round; stroke-linejoin:round; stroke-width:4; stroke-opacity:1; fill:none" points="
  194.422,1486.45 194.422,47.2441 
  "/>
<polyline clip-path="url(#clip970)" style="stroke:#000000; stroke-linecap:round; stroke-linejoin:round; stroke-width:4; stroke-opacity:1; fill:none" points="
  194.422,1309.95 213.32,1309.95 
  "/>
<polyline clip-path="url(#clip970)" style="stroke:#000000; stroke-linecap:round; stroke-linejoin:round; stroke-width:4; stroke-opacity:1; fill:none" points="
  194.422,1038.39 213.32,1038.39 
  "/>
<polyline clip-path="url(#clip970)" style="stroke:#000000; stroke-linecap:round; stroke-linejoin:round; stroke-width:4; stroke-opacity:1; fill:none" points="
  194.422,766.832 213.32,766.832 
  "/>
<polyline clip-path="url(#clip970)" style="stroke:#000000; stroke-linecap:round; stroke-linejoin:round; stroke-width:4; stroke-opacity:1; fill:none" points="
  194.422,495.272 213.32,495.272 
  "/>
<polyline clip-path="url(#clip970)" style="stroke:#000000; stroke-linecap:round; stroke-linejoin:round; stroke-width:4; stroke-opacity:1; fill:none" points="
  194.422,223.713 213.32,223.713 
  "/>
<path clip-path="url(#clip970)" d="M50.9921 1310.4 L80.6679 1310.4 L80.6679 1314.34 L50.9921 1314.34 L50.9921 1310.4 Z" fill="#000000" fill-rule="evenodd" fill-opacity="1" /><path clip-path="url(#clip970)" d="M100.76 1295.75 Q97.1493 1295.75 95.3206 1299.31 Q93.515 1302.86 93.515 1309.99 Q93.515 1317.09 95.3206 1320.66 Q97.1493 1324.2 100.76 1324.2 Q104.395 1324.2 106.2 1320.66 Q108.029 1317.09 108.029 1309.99 Q108.029 1302.86 106.2 1299.31 Q104.395 1295.75 100.76 1295.75 M100.76 1292.05 Q106.571 1292.05 109.626 1296.65 Q112.705 1301.24 112.705 1309.99 Q112.705 1318.71 109.626 1323.32 Q106.571 1327.9 100.76 1327.9 Q94.9502 1327.9 91.8715 1323.32 Q88.816 1318.71 88.816 1309.99 Q88.816 1301.24 91.8715 1296.65 Q94.9502 1292.05 100.76 1292.05 Z" fill="#000000" fill-rule="evenodd" fill-opacity="1" /><path clip-path="url(#clip970)" d="M120.922 1321.35 L125.807 1321.35 L125.807 1327.23 L120.922 1327.23 L120.922 1321.35 Z" fill="#000000" fill-rule="evenodd" fill-opacity="1" /><path clip-path="url(#clip970)" d="M148.839 1296.74 L137.033 1315.19 L148.839 1315.19 L148.839 1296.74 M147.612 1292.67 L153.492 1292.67 L153.492 1315.19 L158.422 1315.19 L158.422 1319.08 L153.492 1319.08 L153.492 1327.23 L148.839 1327.23 L148.839 1319.08 L133.237 1319.08 L133.237 1314.57 L147.612 1292.67 Z" fill="#000000" fill-rule="evenodd" fill-opacity="1" /><path clip-path="url(#clip970)" d="M53.0754 1038.84 L82.7512 1038.84 L82.7512 1042.78 L53.0754 1042.78 L53.0754 1038.84 Z" fill="#000000" fill-rule="evenodd" fill-opacity="1" /><path clip-path="url(#clip970)" d="M102.844 1024.19 Q99.2326 1024.19 97.4039 1027.75 Q95.5984 1031.3 95.5984 1038.43 Q95.5984 1045.53 97.4039 1049.1 Q99.2326 1052.64 102.844 1052.64 Q106.478 1052.64 108.283 1049.1 Q110.112 1045.53 110.112 1038.43 Q110.112 1031.3 108.283 1027.75 Q106.478 1024.19 102.844 1024.19 M102.844 1020.49 Q108.654 1020.49 111.709 1025.09 Q114.788 1029.68 114.788 1038.43 Q114.788 1047.15 111.709 1051.76 Q108.654 1056.34 102.844 1056.34 Q97.0335 1056.34 93.9549 1051.76 Q90.8993 1047.15 90.8993 1038.43 Q90.8993 1029.68 93.9549 1025.09 Q97.0335 1020.49 102.844 1020.49 Z" fill="#000000" fill-rule="evenodd" fill-opacity="1" /><path clip-path="url(#clip970)" d="M123.006 1049.79 L127.89 1049.79 L127.89 1055.67 L123.006 1055.67 L123.006 1049.79 Z" fill="#000000" fill-rule="evenodd" fill-opacity="1" /><path clip-path="url(#clip970)" d="M142.103 1051.74 L158.422 1051.74 L158.422 1055.67 L136.478 1055.67 L136.478 1051.74 Q139.14 1048.98 143.723 1044.35 Q148.33 1039.7 149.51 1038.36 Q151.755 1035.83 152.635 1034.1 Q153.538 1032.34 153.538 1030.65 Q153.538 1027.89 151.593 1026.16 Q149.672 1024.42 146.57 1024.42 Q144.371 1024.42 141.918 1025.19 Q139.487 1025.95 136.709 1027.5 L136.709 1022.78 Q139.533 1021.64 141.987 1021.06 Q144.441 1020.49 146.478 1020.49 Q151.848 1020.49 155.042 1023.17 Q158.237 1025.86 158.237 1030.35 Q158.237 1032.48 157.427 1034.4 Q156.64 1036.3 154.533 1038.89 Q153.955 1039.56 150.853 1042.78 Q147.751 1045.97 142.103 1051.74 Z" fill="#000000" fill-rule="evenodd" fill-opacity="1" /><path clip-path="url(#clip970)" d="M101.246 752.63 Q97.6354 752.63 95.8067 756.195 Q94.0012 759.737 94.0012 766.867 Q94.0012 773.973 95.8067 777.538 Q97.6354 781.079 101.246 781.079 Q104.881 781.079 106.686 777.538 Q108.515 773.973 108.515 766.867 Q108.515 759.737 106.686 756.195 Q104.881 752.63 101.246 752.63 M101.246 748.927 Q107.057 748.927 110.112 753.533 Q113.191 758.117 113.191 766.867 Q113.191 775.593 110.112 780.2 Q107.057 784.783 101.246 784.783 Q95.4363 784.783 92.3576 780.2 Q89.3021 775.593 89.3021 766.867 Q89.3021 758.117 92.3576 753.533 Q95.4363 748.927 101.246 748.927 Z" fill="#000000" fill-rule="evenodd" fill-opacity="1" /><path clip-path="url(#clip970)" d="M121.408 778.232 L126.293 778.232 L126.293 784.112 L121.408 784.112 L121.408 778.232 Z" fill="#000000" fill-rule="evenodd" fill-opacity="1" /><path clip-path="url(#clip970)" d="M146.478 752.63 Q142.867 752.63 141.038 756.195 Q139.232 759.737 139.232 766.867 Q139.232 773.973 141.038 777.538 Q142.867 781.079 146.478 781.079 Q150.112 781.079 151.918 777.538 Q153.746 773.973 153.746 766.867 Q153.746 759.737 151.918 756.195 Q150.112 752.63 146.478 752.63 M146.478 748.927 Q152.288 748.927 155.343 753.533 Q158.422 758.117 158.422 766.867 Q158.422 775.593 155.343 780.2 Q152.288 784.783 146.478 784.783 Q140.668 784.783 137.589 780.2 Q134.533 775.593 134.533 766.867 Q134.533 758.117 137.589 753.533 Q140.668 748.927 146.478 748.927 Z" fill="#000000" fill-rule="evenodd" fill-opacity="1" /><path clip-path="url(#clip970)" d="M102.844 481.071 Q99.2326 481.071 97.4039 484.636 Q95.5984 488.178 95.5984 495.307 Q95.5984 502.414 97.4039 505.978 Q99.2326 509.52 102.844 509.52 Q106.478 509.52 108.283 505.978 Q110.112 502.414 110.112 495.307 Q110.112 488.178 108.283 484.636 Q106.478 481.071 102.844 481.071 M102.844 477.367 Q108.654 477.367 111.709 481.974 Q114.788 486.557 114.788 495.307 Q114.788 504.034 111.709 508.64 Q108.654 513.224 102.844 513.224 Q97.0335 513.224 93.9549 508.64 Q90.8993 504.034 90.8993 495.307 Q90.8993 486.557 93.9549 481.974 Q97.0335 477.367 102.844 477.367 Z" fill="#000000" fill-rule="evenodd" fill-opacity="1" /><path clip-path="url(#clip970)" d="M123.006 506.673 L127.89 506.673 L127.89 512.552 L123.006 512.552 L123.006 506.673 Z" fill="#000000" fill-rule="evenodd" fill-opacity="1" /><path clip-path="url(#clip970)" d="M142.103 508.617 L158.422 508.617 L158.422 512.552 L136.478 512.552 L136.478 508.617 Q139.14 505.863 143.723 501.233 Q148.33 496.58 149.51 495.238 Q151.755 492.715 152.635 490.978 Q153.538 489.219 153.538 487.529 Q153.538 484.775 151.593 483.039 Q149.672 481.303 146.57 481.303 Q144.371 481.303 141.918 482.066 Q139.487 482.83 136.709 484.381 L136.709 479.659 Q139.533 478.525 141.987 477.946 Q144.441 477.367 146.478 477.367 Q151.848 477.367 155.042 480.053 Q158.237 482.738 158.237 487.228 Q158.237 489.358 157.427 491.279 Q156.64 493.178 154.533 495.77 Q153.955 496.441 150.853 499.659 Q147.751 502.853 142.103 508.617 Z" fill="#000000" fill-rule="evenodd" fill-opacity="1" /><path clip-path="url(#clip970)" d="M100.76 209.512 Q97.1493 209.512 95.3206 213.077 Q93.515 216.618 93.515 223.748 Q93.515 230.854 95.3206 234.419 Q97.1493 237.961 100.76 237.961 Q104.395 237.961 106.2 234.419 Q108.029 230.854 108.029 223.748 Q108.029 216.618 106.2 213.077 Q104.395 209.512 100.76 209.512 M100.76 205.808 Q106.571 205.808 109.626 210.414 Q112.705 214.998 112.705 223.748 Q112.705 232.475 109.626 237.081 Q106.571 241.664 100.76 241.664 Q94.9502 241.664 91.8715 237.081 Q88.816 232.475 88.816 223.748 Q88.816 214.998 91.8715 210.414 Q94.9502 205.808 100.76 205.808 Z" fill="#000000" fill-rule="evenodd" fill-opacity="1" /><path clip-path="url(#clip970)" d="M120.922 235.113 L125.807 235.113 L125.807 240.993 L120.922 240.993 L120.922 235.113 Z" fill="#000000" fill-rule="evenodd" fill-opacity="1" /><path clip-path="url(#clip970)" d="M148.839 210.507 L137.033 228.956 L148.839 228.956 L148.839 210.507 M147.612 206.433 L153.492 206.433 L153.492 228.956 L158.422 228.956 L158.422 232.845 L153.492 232.845 L153.492 240.993 L148.839 240.993 L148.839 232.845 L133.237 232.845 L133.237 228.331 L147.612 206.433 Z" fill="#000000" fill-rule="evenodd" fill-opacity="1" /><polyline clip-path="url(#clip972)" style="stroke:#009af9; stroke-linecap:round; stroke-linejoin:round; stroke-width:4; stroke-opacity:1; fill:none" points="
  255.507,766.832 258.821,739.068 262.135,711.35 265.449,683.726 268.764,656.24 276.425,593.489 284.086,532.286 291.747,473.179 299.408,416.696 303.238,389.597 
  307.069,363.342 310.899,337.988 314.73,313.592 318.56,290.21 322.39,267.893 326.221,246.691 330.051,226.651 333.882,207.819 337.712,190.237 341.543,173.943 
  345.373,158.974 349.204,145.363 353.034,133.142 356.865,122.337 360.695,112.972 364.526,105.069 368.356,98.6451 372.187,93.7144 376.017,90.2882 379.848,88.3741 
  383.678,87.9763 387.509,89.0958 391.339,91.73 395.943,96.892 400.547,104.217 405.151,113.681 409.755,125.254 414.359,138.898 418.963,154.569 423.567,172.217 
  428.171,191.785 432.775,213.209 437.379,236.421 441.983,261.345 446.587,287.901 451.191,316.003 455.795,345.561 460.398,376.478 465.002,408.656 472.788,465.643 
  480.573,525.409 488.358,587.402 496.143,651.051 511.713,780.957 527.283,910.342 535.74,978.7 544.197,1044.75 548.426,1076.69 552.654,1107.78 556.882,1137.94 
  561.111,1167.09 565.339,1195.15 569.568,1222.05 573.796,1247.71 578.025,1272.05 582.253,1295.02 586.481,1316.55 590.71,1336.59 594.938,1355.07 598.836,1370.69 
  602.735,1384.92 606.633,1397.71 610.531,1409.04 614.429,1418.89 618.328,1427.22 622.226,1434.03 626.124,1439.3 630.022,1443 633.921,1445.14 637.819,1445.72 
  641.717,1444.72 645.615,1442.15 649.513,1438.01 653.412,1432.33 657.31,1425.1 661.489,1415.66 665.669,1404.5 669.848,1391.64 674.027,1377.11 678.206,1360.96 
  682.386,1343.24 686.565,1323.97 690.744,1303.23 694.924,1281.06 699.103,1257.52 703.282,1232.67 707.462,1206.59 711.641,1179.33 715.82,1150.98 720,1121.61 
  724.179,1091.29 729.021,1055.09 733.863,1017.86 738.705,979.733 743.548,940.847 753.232,861.351 762.916,780.506 772.6,699.466 782.285,619.387 791.969,541.412 
  801.653,466.655 805.956,434.751 810.26,403.783 814.563,373.839 818.866,345.004 823.169,317.358 827.472,290.98 831.775,265.944 836.078,242.321 840.381,220.177 
  844.685,199.576 848.988,180.574 853.291,163.225 857.594,147.579 861.897,133.68 866.2,121.566 870.503,111.272 874.277,103.767 878.05,97.6989 881.824,93.0825 
  885.597,89.9275 889.371,88.2406 893.144,88.0256 896.918,89.2829 900.691,92.0098 904.464,96.2004 908.238,101.846 912.011,108.933 915.785,117.447 919.558,127.37 
  923.332,138.68 927.105,151.353 930.879,165.36 934.993,182.117 939.107,200.382 943.221,220.107 947.335,241.241 951.449,263.731 955.563,287.518 959.677,312.54 
  963.791,338.734 967.905,366.031 972.019,394.362 976.134,423.653 980.248,453.828 988.476,516.521 996.704,581.793 1013.26,718.183 1029.81,856.597 1038.09,924.761 
  1046.37,991.277 1054.64,1055.45 1062.92,1116.62 1067.5,1148.91 1072.07,1179.97 1076.65,1209.72 1081.22,1238.06 1085.8,1264.9 1090.37,1290.15 1094.95,1313.73 
  1099.53,1335.56 1104.1,1355.58 1108.68,1373.72 1113.25,1389.93 1117.83,1404.15 1122.4,1416.34 1126.98,1426.46 1131.56,1434.47 1136.13,1440.36 1140.48,1443.96 
  1144.84,1445.62 1149.19,1445.31 1153.55,1443.04 1157.9,1438.82 1162.25,1432.66 1166.61,1424.58 1170.96,1414.59 1175.31,1402.74 1179.67,1389.06 1184.02,1373.57 
  1188.37,1356.34 1192.73,1337.4 1197.08,1316.81 1201.44,1294.64 1205.79,1270.94 1210.32,1244.76 1214.84,1217.09 1219.37,1188.01 1223.9,1157.62 1228.42,1126.01 
  1232.95,1093.27 1237.48,1059.52 1242,1024.86 1251.06,953.219 1260.11,879.256 1269.16,803.892 1278.22,728.065 1285.84,664.571 1293.46,601.981 1301.08,540.849 
  1308.7,481.715 1312.51,453.062 1316.32,425.103 1320.13,397.899 1323.94,371.512 1327.76,345.999 1331.57,321.417 1335.38,297.82 1339.19,275.26 1343.84,249.196 
  1348.49,224.839 1353.14,202.268 1357.8,181.558 1362.45,162.778 1367.1,145.989 1371.75,131.247 1376.41,118.6 1381.06,108.091 1385.71,99.7522 1390.36,93.6131 
  1395.01,89.6932 1399.67,88.0057 1404.32,88.5559 1408.97,91.3422 1413.62,96.3553 1417.89,102.888 1422.15,111.257 1426.41,121.441 1430.67,133.409 1434.93,147.13 
  1439.19,162.566 1443.46,179.673 1447.72,198.405 1451.98,218.709 1456.24,240.529 1460.5,263.806 1464.77,288.474 1469.03,314.466 1473.29,341.709 1477.55,370.128 
  1481.81,399.645 1489.68,456.776 1497.56,516.832 1505.43,579.246 1513.3,643.43 1529.05,774.674 1544.79,905.623 1552.76,970.257 1560.74,1032.92 1568.71,1093.01 
  1576.69,1149.94 1580.67,1177.05 1584.66,1203.16 1588.65,1228.22 1592.64,1252.16 1596.62,1274.93 1600.61,1296.46 1604.6,1316.72 1608.58,1335.64 1613.05,1355.21 
  1617.52,1372.98 1621.99,1388.92 1626.46,1402.96 1630.93,1415.06 1635.39,1425.2 1639.86,1433.33 1644.33,1439.44 1648.8,1443.5 1653.27,1445.5 1657.74,1445.44 
  1662.21,1443.32 1666.67,1439.13 1671.14,1432.9 1675.61,1424.65 1680.08,1414.4 1684.13,1403.4 1688.18,1390.82 1692.23,1376.68 1696.28,1361.02 1700.33,1343.87 
  1704.37,1325.28 1708.42,1305.29 1712.47,1283.96 1716.52,1261.34 1720.57,1237.49 1724.62,1212.46 1728.67,1186.31 1732.72,1159.12 1736.77,1130.95 1740.82,1101.87 
  1744.87,1071.95 1754.14,1000.7 1763.41,926.387 1772.68,849.987 1781.95,772.499 1791.23,694.937 1800.5,618.315 1809.77,543.637 1819.04,471.879 1823.33,439.91 
  1827.63,408.858 1831.92,378.811 1836.21,349.854 1840.5,322.066 1844.8,295.527 1849.09,270.31 1853.38,246.487 1857.67,224.124 1861.97,203.285 1866.26,184.027 
  1870.55,166.405 1874.84,150.468 1879.14,136.26 1883.43,123.823 1887.72,113.19 1891.95,104.503 1896.19,97.6231 1900.42,92.5684 1904.65,89.3531 1908.88,87.986 
  1913.11,88.4706 1917.35,90.8057 1921.58,94.985 1925.81,100.997 1930.04,108.825 1934.27,118.449 1938.51,129.841 1942.74,142.971 1946.97,157.802 1951.2,174.295 
  1955.43,192.405 1959.54,211.487 1963.65,231.998 1967.76,253.884 1971.87,277.089 1975.98,301.553 1980.09,327.214 1984.19,354.006 1988.3,381.859 1996.52,440.461 
  2004.74,502.418 2012.96,567.093 2021.17,633.821 2038.02,774.141 2054.87,914.145 2063.3,982.136 2071.72,1047.8 2080.14,1110.43 2088.57,1169.35 2093.18,1199.82 
  2097.8,1228.89 2102.41,1256.46 2107.03,1282.44 2111.64,1306.74 2116.26,1329.3 2120.87,1350.03 2125.49,1368.87 2130.1,1385.76 2134.72,1400.64 2139.33,1413.46 
  2143.95,1424.19 2148.56,1432.78 2153.18,1439.21 2157.79,1443.46 2162.41,1445.52 2165.76,1445.64 2169.11,1444.59 2172.46,1442.38 2175.81,1439.02 2179.16,1434.5 
  2182.52,1428.85 2185.87,1422.06 2189.22,1414.15 2192.57,1405.13 2195.92,1395.01 2199.28,1383.83 2202.63,1371.59 2205.98,1358.31 2209.33,1344.02 2212.68,1328.74 
  2216.04,1312.5 2219.39,1295.33 2222.74,1277.25 2226.09,1258.3 2229.44,1238.5 2236.15,1196.53 2242.85,1151.62 2249.55,1104.07 2256.26,1054.22 2262.96,1002.4 
  2269.67,948.969 2275.17,904.174 2280.67,858.746 2286.17,812.895 2291.67,766.832 
  "/>
<path clip-path="url(#clip970)" d="
M2012.55 198.898 L2280.81 198.898 L2280.81 95.2176 L2012.55 95.2176  Z
  " fill="#ffffff" fill-rule="evenodd" fill-opacity="1"/>
<polyline clip-path="url(#clip970)" style="stroke:#000000; stroke-linecap:round; stroke-linejoin:round; stroke-width:4; stroke-opacity:1; fill:none" points="
  2012.55,198.898 2280.81,198.898 2280.81,95.2176 2012.55,95.2176 2012.55,198.898 
  "/>
<polyline clip-path="url(#clip970)" style="stroke:#009af9; stroke-linecap:round; stroke-linejoin:round; stroke-width:4; stroke-opacity:1; fill:none" points="
  2036.53,147.058 2180.42,147.058 
  "/>
<path clip-path="url(#clip970)" d="M2218.24 166.745 Q2216.44 171.375 2214.72 172.787 Q2213.01 174.199 2210.14 174.199 L2206.74 174.199 L2206.74 170.634 L2209.24 170.634 Q2211 170.634 2211.97 169.8 Q2212.94 168.967 2214.12 165.865 L2214.89 163.921 L2204.4 138.412 L2208.91 138.412 L2217.02 158.689 L2225.12 138.412 L2229.63 138.412 L2218.24 166.745 Z" fill="#000000" fill-rule="evenodd" fill-opacity="1" /><path clip-path="url(#clip970)" d="M2236.92 160.402 L2244.56 160.402 L2244.56 134.037 L2236.25 135.703 L2236.25 131.444 L2244.52 129.778 L2249.19 129.778 L2249.19 160.402 L2256.83 160.402 L2256.83 164.338 L2236.92 164.338 L2236.92 160.402 Z" fill="#000000" fill-rule="evenodd" fill-opacity="1" /></svg>
